<svg xmlns="http://www.w3.org/2000/svg" width="210.00000000000009mm" height="262.09619650340153mm" viewBox="0 0 210.00000000000009 262.09619650340153"><style>text{font-family:Arial,sans-serif} path,circle,line,rect{vector-effect:non-scaling-stroke}</style><path d="M10.00000,98.19559 L10.00000,233.09620" fill="none" stroke="black" stroke-width="0.35"/><path d="M10.00000,98.19559 L11.30333,97.97369 L12.50858,97.43028 L13.53783,96.60049 L14.32456,95.53795 L14.81790,94.31136 L14.98597,93.00000 L14.81790,91.68864 L14.32456,90.46205 L13.53783,89.39951 L12.50858,88.56972 L11.30333,88.02631 L10.00000,87.80441" fill="none" stroke="black" stroke-width="0.35"/><path d="M10.00000,233.09620 L200.00000,233.09620" fill="none" stroke="black" stroke-width="0.35"/><path d="M200.00000,98.19559 L200.00000,233.09620" fill="none" stroke="black" stroke-width="0.35"/><path d="M10.00000,10.00000 L71.70938,10.00000" fill="none" stroke="black" stroke-width="0.35"/><path d="M10.00000,10.00000 L10.00000,87.80441" fill="none" stroke="black" stroke-width="0.35"/><path d="M71.70938,10.00000 L72.68545,10.09620 L73.66152,10.00000" fill="none" stroke="black" stroke-width="0.35"/><path d="M73.66152,10.00000 L200.00000,10.00000" fill="none" stroke="black" stroke-width="0.35"/><path d="M200.00000,10.00000 L200.00000,87.80441" fill="none" stroke="black" stroke-width="0.35"/><path d="M200.00000,87.80441 L198.69667,88.02631 L197.49142,88.56972 L196.46217,89.39951 L195.67544,90.46205 L195.18210,91.68864 L195.01403,93.00000 L195.18210,94.31136 L195.67544,95.53795 L196.46217,96.60049 L197.49142,97.43028 L198.69667,97.97369 L200.00000,98.19559" fill="none" stroke="black" stroke-width="0.35"/><path d="M16.65000,228.09620 L16.46100,227.32940 L15.93731,226.73827 L15.19889,226.45823 L14.41490,226.55342 L13.76496,227.00204 L13.39795,227.70133 L13.39795,228.49107 L13.76496,229.19035 L14.41490,229.63897 L15.19889,229.73417 L15.93731,229.45412 L16.46100,228.86299 L16.65000,228.09620" fill="none" stroke="black" stroke-width="0.35"/><path d="M34.88545,201.09620 L34.69262,199.69325 L34.12843,198.39436 L33.23473,197.29585 L32.07779,196.47919 L30.74342,196.00496 L29.33059,195.90832 L27.94408,196.19644 L26.68671,196.84795 L25.65175,197.81454 L24.91595,199.02451 L24.53388,200.38813 L24.53388,201.80426 L24.91595,203.16788 L25.65175,204.37785 L26.68671,205.34444 L27.94408,205.99595 L29.33059,206.28407 L30.74342,206.18743 L32.07779,205.71320 L33.23473,204.89654 L34.12843,203.79803 L34.69262,202.49914 L34.88545,201.09620" fill="none" stroke="black" stroke-width="0.35"/><path d="M67.68545,201.09620 L67.50004,199.74721 L66.95755,198.49828 L66.09822,197.44202 L64.98578,196.65677 L63.70273,196.20078 L62.34424,196.10785 L61.01105,196.38489 L59.80205,197.01135 L58.80690,197.94076 L58.09939,199.10419 L57.73202,200.41536 L57.73202,201.77703 L58.09939,203.08820 L58.80690,204.25164 L59.80205,205.18105 L61.01105,205.80750 L62.34424,206.08454 L63.70273,205.99162 L64.98578,205.53562 L66.09822,204.75038 L66.95755,203.69412 L67.50004,202.44518 L67.68545,201.09620" fill="none" stroke="black" stroke-width="0.35"/><path d="M100.88545,201.09620 L100.69262,199.69325 L100.12843,198.39436 L99.23473,197.29585 L98.07779,196.47919 L96.74342,196.00496 L95.33059,195.90832 L93.94408,196.19644 L92.68671,196.84795 L91.65175,197.81454 L90.91595,199.02451 L90.53388,200.38813 L90.53388,201.80426 L90.91595,203.16788 L91.65175,204.37785 L92.68671,205.34444 L93.94408,205.99595 L95.33059,206.28407 L96.74342,206.18743 L98.07779,205.71320 L99.23473,204.89654 L100.12843,203.79803 L100.69262,202.49914 L100.88545,201.09620" fill="none" stroke="black" stroke-width="0.35"/><path d="M196.65000,228.09620 L196.46100,227.32940 L195.93731,226.73827 L195.19889,226.45823 L194.41490,226.55342 L193.76496,227.00204 L193.39795,227.70133 L193.39795,228.49107 L193.76496,229.19035 L194.41490,229.63897 L195.19889,229.73417 L195.93731,229.45412 L196.46100,228.86299 L196.65000,228.09620" fill="none" stroke="black" stroke-width="0.35"/><path d="M16.65000,15.00000 L16.46100,14.23321 L15.93731,13.64208 L15.19889,13.36203 L14.41490,13.45722 L13.76496,13.90585 L13.39795,14.60513 L13.39795,15.39487 L13.76496,16.09415 L14.41490,16.54278 L15.19889,16.63797 L15.93731,16.35792 L16.46100,15.76679 L16.65000,15.00000" fill="none" stroke="black" stroke-width="0.35"/><path d="M110.00000,105.00000 L109.81459,103.65102 L109.27210,102.40208 L108.41277,101.34582 L107.30033,100.56057 L106.01728,100.10458 L104.65879,100.01166 L103.32560,100.28870 L102.11660,100.91515 L101.12144,101.84456 L100.41394,103.00799 L100.04657,104.31917 L100.04657,105.68083 L100.41394,106.99201 L101.12144,108.15544 L102.11660,109.08485 L103.32560,109.71130 L104.65879,109.98834 L106.01728,109.89542 L107.30033,109.43943 L108.41277,108.65418 L109.27210,107.59792 L109.81459,106.34898 L110.00000,105.00000" fill="none" stroke="black" stroke-width="0.35"/><path d="M196.65000,15.00000 L196.46100,14.23321 L195.93731,13.64208 L195.19889,13.36203 L194.41490,13.45722 L193.76496,13.90585 L193.39795,14.60513 L193.39795,15.39487 L193.76496,16.09415 L194.41490,16.54278 L195.19889,16.63797 L195.93731,16.35792 L196.46100,15.76679 L196.65000,15.00000" fill="none" stroke="black" stroke-width="0.35"/><text x="10" y="241.09619650340153" font-size="3">C S1 / PETG sheet1mm / 190.000 x 223.096 / print100%</text><line x1="10" y1="248.09619650340153" x2="60" y2="248.09619650340153" stroke="black" stroke-width="0.4"/><text x="65" y="249.09619650340153" font-size="3">50mm calibration line; verify with ruler.</text><text x="10" y="256.09619650340153" font-size="2.7">Shaft holes:10 / cover holes:3.3 / case rods:10.4 mm</text></svg>
