<svg xmlns="http://www.w3.org/2000/svg" width="1200" height="821" viewBox="0 0 1200 821"><rect width="100%" height="100%" fill="#101722"/><text x="45" y="42" font-family="sans-serif" font-size="23" fill="#dce5f2">C / 局所噴流の静止角トルク推定と必要入力</text><text x="45" y="72" font-family="sans-serif" font-size="16" fill="#f7c66f">条件付き計算 / CFD・実測・実機合格ではありません</text><path d="M95 540.0H1115" stroke="#304052"/><text x="12" y="545.0" font-family="sans-serif" font-size="13" fill="#dce5f2">-0.811</text><path d="M95 459.0H1115" stroke="#304052"/><text x="12" y="464.0" font-family="sans-serif" font-size="13" fill="#dce5f2">2.86</text><path d="M95 378.0H1115" stroke="#304052"/><text x="12" y="383.0" font-family="sans-serif" font-size="13" fill="#dce5f2">6.52</text><path d="M95 297.0H1115" stroke="#304052"/><text x="12" y="302.0" font-family="sans-serif" font-size="13" fill="#dce5f2">10.2</text><path d="M95 216.0H1115" stroke="#304052"/><text x="12" y="221.0" font-family="sans-serif" font-size="13" fill="#dce5f2">13.9</text><path d="M95 135.0H1115" stroke="#304052"/><text x="12" y="140.0" font-family="sans-serif" font-size="13" fill="#dce5f2">17.5</text><path d="M95.0 135V548" stroke="#263545"/><text x="83.0" y="563" font-family="sans-serif" font-size="13" fill="#dce5f2">0</text><path d="M350.0 135V548" stroke="#263545"/><text x="338.0" y="563" font-family="sans-serif" font-size="13" fill="#dce5f2">90</text><path d="M605.0 135V548" stroke="#263545"/><text x="593.0" y="563" font-family="sans-serif" font-size="13" fill="#dce5f2">180</text><path d="M860.0 135V548" stroke="#263545"/><text x="848.0" y="563" font-family="sans-serif" font-size="13" fill="#dce5f2">270</text><path d="M1115.0 135V548" stroke="#263545"/><text x="1103.0" y="563" font-family="sans-serif" font-size="13" fill="#dce5f2">360</text><text x="490" y="584" font-family="sans-serif" font-size="16" fill="#dce5f2">風車角 [deg] / 正方向へ正規化</text><text x="95" y="113" font-family="sans-serif" font-size="16" fill="#dce5f2">トルク [mN m]</text><polyline points="95.000,514.466 96.417,514.459 97.833,514.461 99.250,514.445 100.667,514.467 102.083,514.491 103.500,514.486 104.917,514.481 106.333,514.455 107.750,514.451 109.167,514.451 110.583,514.460 112.000,514.451 113.417,514.471 114.833,514.477 116.250,514.481 117.667,514.472 119.083,514.480 120.500,514.498 121.917,514.495 123.333,514.503 124.750,514.496 126.167,514.509 127.583,514.512 129.000,514.534 130.417,514.533 131.833,514.539 133.250,514.556 134.667,514.563 136.083,514.551 137.500,514.555 138.917,514.551 140.333,514.549 141.750,514.555 143.167,514.541 144.583,514.537 146.000,514.538 147.417,514.534 148.833,514.517 150.250,514.515 151.667,514.505 153.083,514.509 154.500,514.504 155.917,514.486 157.333,514.480 158.750,514.466 160.167,514.459 161.583,514.461 163.000,514.445 164.417,514.467 165.833,514.491 167.250,514.486 168.667,514.481 170.083,514.455 171.500,514.451 172.917,514.451 174.333,514.460 175.750,514.451 177.167,514.471 178.583,514.477 180.000,514.481 181.417,514.472 182.833,514.480 184.250,514.498 185.667,514.495 187.083,514.503 188.500,514.496 189.917,514.509 191.333,514.512 192.750,514.534 194.167,514.533 195.583,514.539 197.000,514.556 198.417,514.563 199.833,514.551 201.250,514.555 202.667,514.551 204.083,514.549 205.500,514.555 206.917,514.541 208.333,514.537 209.750,514.538 211.167,514.534 212.583,514.517 214.000,514.515 215.417,514.505 216.833,514.509 218.250,514.504 219.667,514.486 221.083,514.480 222.500,514.466 223.917,514.459 225.333,514.461 226.750,514.445 228.167,514.467 229.583,514.491 231.000,514.486 232.417,514.481 233.833,514.455 235.250,514.451 236.667,514.451 238.083,514.460 239.500,514.451 240.917,514.471 242.333,514.477 243.750,514.481 245.167,514.472 246.583,514.480 248.000,514.498 249.417,514.495 250.833,514.503 252.250,514.496 253.667,514.509 255.083,514.512 256.500,514.534 257.917,514.533 259.333,514.539 260.750,514.556 262.167,514.563 263.583,514.551 265.000,514.555 266.417,514.551 267.833,514.549 269.250,514.555 270.667,514.541 272.083,514.537 273.500,514.538 274.917,514.534 276.333,514.517 277.750,514.515 279.167,514.505 280.583,514.509 282.000,514.504 283.417,514.486 284.833,514.480 286.250,514.466 287.667,514.459 289.083,514.461 290.500,514.445 291.917,514.467 293.333,514.491 294.750,514.486 296.167,514.481 297.583,514.455 299.000,514.451 300.417,514.451 301.833,514.460 303.250,514.451 304.667,514.471 306.083,514.477 307.500,514.481 308.917,514.472 310.333,514.480 311.750,514.498 313.167,514.495 314.583,514.503 316.000,514.496 317.417,514.509 318.833,514.512 320.250,514.534 321.667,514.533 323.083,514.539 324.500,514.556 325.917,514.563 327.333,514.551 328.750,514.555 330.167,514.551 331.583,514.549 333.000,514.555 334.417,514.541 335.833,514.537 337.250,514.538 338.667,514.534 340.083,514.517 341.500,514.515 342.917,514.505 344.333,514.509 345.750,514.504 347.167,514.486 348.583,514.480 350.000,514.466 351.417,514.459 352.833,514.461 354.250,514.445 355.667,514.467 357.083,514.491 358.500,514.486 359.917,514.481 361.333,514.455 362.750,514.451 364.167,514.451 365.583,514.460 367.000,514.451 368.417,514.471 369.833,514.477 371.250,514.481 372.667,514.472 374.083,514.480 375.500,514.498 376.917,514.495 378.333,514.503 379.750,514.496 381.167,514.509 382.583,514.512 384.000,514.534 385.417,514.533 386.833,514.539 388.250,514.556 389.667,514.563 391.083,514.551 392.500,514.555 393.917,514.551 395.333,514.549 396.750,514.555 398.167,514.541 399.583,514.537 401.000,514.538 402.417,514.534 403.833,514.517 405.250,514.515 406.667,514.505 408.083,514.509 409.500,514.504 410.917,514.486 412.333,514.480 413.750,514.466 415.167,514.459 416.583,514.461 418.000,514.445 419.417,514.467 420.833,514.491 422.250,514.486 423.667,514.481 425.083,514.455 426.500,514.451 427.917,514.451 429.333,514.460 430.750,514.451 432.167,514.471 433.583,514.477 435.000,514.481 436.417,514.472 437.833,514.480 439.250,514.498 440.667,514.495 442.083,514.503 443.500,514.496 444.917,514.509 446.333,514.512 447.750,514.534 449.167,514.533 450.583,514.539 452.000,514.556 453.417,514.563 454.833,514.551 456.250,514.555 457.667,514.551 459.083,514.549 460.500,514.555 461.917,514.541 463.333,514.537 464.750,514.538 466.167,514.534 467.583,514.517 469.000,514.515 470.417,514.505 471.833,514.509 473.250,514.504 474.667,514.486 476.083,514.480 477.500,514.466 478.917,514.459 480.333,514.461 481.750,514.445 483.167,514.467 484.583,514.491 486.000,514.486 487.417,514.481 488.833,514.455 490.250,514.451 491.667,514.451 493.083,514.460 494.500,514.451 495.917,514.471 497.333,514.477 498.750,514.481 500.167,514.472 501.583,514.480 503.000,514.498 504.417,514.495 505.833,514.503 507.250,514.496 508.667,514.509 510.083,514.512 511.500,514.534 512.917,514.533 514.333,514.539 515.750,514.556 517.167,514.563 518.583,514.551 520.000,514.555 521.417,514.551 522.833,514.549 524.250,514.555 525.667,514.541 527.083,514.537 528.500,514.538 529.917,514.534 531.333,514.517 532.750,514.515 534.167,514.505 535.583,514.509 537.000,514.504 538.417,514.486 539.833,514.480 541.250,514.466 542.667,514.459 544.083,514.461 545.500,514.445 546.917,514.467 548.333,514.491 549.750,514.486 551.167,514.481 552.583,514.455 554.000,514.451 555.417,514.451 556.833,514.460 558.250,514.451 559.667,514.471 561.083,514.477 562.500,514.481 563.917,514.472 565.333,514.480 566.750,514.498 568.167,514.495 569.583,514.503 571.000,514.496 572.417,514.509 573.833,514.512 575.250,514.534 576.667,514.533 578.083,514.539 579.500,514.556 580.917,514.563 582.333,514.551 583.750,514.555 585.167,514.551 586.583,514.549 588.000,514.555 589.417,514.541 590.833,514.537 592.250,514.538 593.667,514.534 595.083,514.517 596.500,514.515 597.917,514.505 599.333,514.509 600.750,514.504 602.167,514.486 603.583,514.480 605.000,514.466 606.417,514.459 607.833,514.461 609.250,514.445 610.667,514.467 612.083,514.491 613.500,514.486 614.917,514.481 616.333,514.455 617.750,514.451 619.167,514.451 620.583,514.460 622.000,514.451 623.417,514.471 624.833,514.477 626.250,514.481 627.667,514.472 629.083,514.480 630.500,514.498 631.917,514.495 633.333,514.503 634.750,514.496 636.167,514.509 637.583,514.512 639.000,514.534 640.417,514.533 641.833,514.539 643.250,514.556 644.667,514.563 646.083,514.551 647.500,514.555 648.917,514.551 650.333,514.549 651.750,514.555 653.167,514.541 654.583,514.537 656.000,514.538 657.417,514.534 658.833,514.517 660.250,514.515 661.667,514.505 663.083,514.509 664.500,514.504 665.917,514.486 667.333,514.480 668.750,514.466 670.167,514.459 671.583,514.461 673.000,514.445 674.417,514.467 675.833,514.491 677.250,514.486 678.667,514.481 680.083,514.455 681.500,514.451 682.917,514.451 684.333,514.460 685.750,514.451 687.167,514.471 688.583,514.477 690.000,514.481 691.417,514.472 692.833,514.480 694.250,514.498 695.667,514.495 697.083,514.503 698.500,514.496 699.917,514.509 701.333,514.512 702.750,514.534 704.167,514.533 705.583,514.539 707.000,514.556 708.417,514.563 709.833,514.551 711.250,514.555 712.667,514.551 714.083,514.549 715.500,514.555 716.917,514.541 718.333,514.537 719.750,514.538 721.167,514.534 722.583,514.517 724.000,514.515 725.417,514.505 726.833,514.509 728.250,514.504 729.667,514.486 731.083,514.480 732.500,514.466 733.917,514.459 735.333,514.461 736.750,514.445 738.167,514.467 739.583,514.491 741.000,514.486 742.417,514.481 743.833,514.455 745.250,514.451 746.667,514.451 748.083,514.460 749.500,514.451 750.917,514.471 752.333,514.477 753.750,514.481 755.167,514.472 756.583,514.480 758.000,514.498 759.417,514.495 760.833,514.503 762.250,514.496 763.667,514.509 765.083,514.512 766.500,514.534 767.917,514.533 769.333,514.539 770.750,514.556 772.167,514.563 773.583,514.551 775.000,514.555 776.417,514.551 777.833,514.549 779.250,514.555 780.667,514.541 782.083,514.537 783.500,514.538 784.917,514.534 786.333,514.517 787.750,514.515 789.167,514.505 790.583,514.509 792.000,514.504 793.417,514.486 794.833,514.480 796.250,514.466 797.667,514.459 799.083,514.461 800.500,514.445 801.917,514.467 803.333,514.491 804.750,514.486 806.167,514.481 807.583,514.455 809.000,514.451 810.417,514.451 811.833,514.460 813.250,514.451 814.667,514.471 816.083,514.477 817.500,514.481 818.917,514.472 820.333,514.480 821.750,514.498 823.167,514.495 824.583,514.503 826.000,514.496 827.417,514.509 828.833,514.512 830.250,514.534 831.667,514.533 833.083,514.539 834.500,514.556 835.917,514.563 837.333,514.551 838.750,514.555 840.167,514.551 841.583,514.549 843.000,514.555 844.417,514.541 845.833,514.537 847.250,514.538 848.667,514.534 850.083,514.517 851.500,514.515 852.917,514.505 854.333,514.509 855.750,514.504 857.167,514.486 858.583,514.480 860.000,514.466 861.417,514.459 862.833,514.461 864.250,514.445 865.667,514.467 867.083,514.491 868.500,514.486 869.917,514.481 871.333,514.455 872.750,514.451 874.167,514.451 875.583,514.460 877.000,514.451 878.417,514.471 879.833,514.477 881.250,514.481 882.667,514.472 884.083,514.480 885.500,514.498 886.917,514.495 888.333,514.503 889.750,514.496 891.167,514.509 892.583,514.512 894.000,514.534 895.417,514.533 896.833,514.539 898.250,514.556 899.667,514.563 901.083,514.551 902.500,514.555 903.917,514.551 905.333,514.549 906.750,514.555 908.167,514.541 909.583,514.537 911.000,514.538 912.417,514.534 913.833,514.517 915.250,514.515 916.667,514.505 918.083,514.509 919.500,514.504 920.917,514.486 922.333,514.480 923.750,514.466 925.167,514.459 926.583,514.461 928.000,514.445 929.417,514.467 930.833,514.491 932.250,514.486 933.667,514.481 935.083,514.455 936.500,514.451 937.917,514.451 939.333,514.460 940.750,514.451 942.167,514.471 943.583,514.477 945.000,514.481 946.417,514.472 947.833,514.480 949.250,514.498 950.667,514.495 952.083,514.503 953.500,514.496 954.917,514.509 956.333,514.512 957.750,514.534 959.167,514.533 960.583,514.539 962.000,514.556 963.417,514.563 964.833,514.551 966.250,514.555 967.667,514.551 969.083,514.549 970.500,514.555 971.917,514.541 973.333,514.537 974.750,514.538 976.167,514.534 977.583,514.517 979.000,514.515 980.417,514.505 981.833,514.509 983.250,514.504 984.667,514.486 986.083,514.480 987.500,514.466 988.917,514.459 990.333,514.461 991.750,514.445 993.167,514.467 994.583,514.491 996.000,514.486 997.417,514.481 998.833,514.455 1000.250,514.451 1001.667,514.451 1003.083,514.460 1004.500,514.451 1005.917,514.471 1007.333,514.477 1008.750,514.481 1010.167,514.472 1011.583,514.480 1013.000,514.498 1014.417,514.495 1015.833,514.503 1017.250,514.496 1018.667,514.509 1020.083,514.512 1021.500,514.534 1022.917,514.533 1024.333,514.539 1025.750,514.556 1027.167,514.563 1028.583,514.551 1030.000,514.555 1031.417,514.551 1032.833,514.549 1034.250,514.555 1035.667,514.541 1037.083,514.537 1038.500,514.538 1039.917,514.534 1041.333,514.517 1042.750,514.515 1044.167,514.505 1045.583,514.509 1047.000,514.504 1048.417,514.486 1049.833,514.480 1051.250,514.466 1052.667,514.459 1054.083,514.461 1055.500,514.445 1056.917,514.467 1058.333,514.491 1059.750,514.486 1061.167,514.481 1062.583,514.455 1064.000,514.451 1065.417,514.451 1066.833,514.460 1068.250,514.451 1069.667,514.471 1071.083,514.477 1072.500,514.481 1073.917,514.472 1075.333,514.480 1076.750,514.498 1078.167,514.495 1079.583,514.503 1081.000,514.496 1082.417,514.509 1083.833,514.512 1085.250,514.534 1086.667,514.533 1088.083,514.539 1089.500,514.556 1090.917,514.563 1092.333,514.551 1093.750,514.555 1095.167,514.551 1096.583,514.549 1098.000,514.555 1099.417,514.541 1100.833,514.537 1102.250,514.538 1103.667,514.534 1105.083,514.517 1106.500,514.515 1107.917,514.505 1109.333,514.509 1110.750,514.504 1112.167,514.486 1113.583,514.480" fill="none" stroke="#6ad6a2" stroke-width="2"/><text x="100" y="620" font-family="sans-serif" font-size="14" fill="#6ad6a2">局所抗力モデル × 未校正保持係数 0.25</text><polyline points="95.000,506.853 96.417,506.839 97.833,506.841 99.250,506.810 100.667,506.854 102.083,506.903 103.500,506.893 104.917,506.882 106.333,506.829 107.750,506.822 109.167,506.823 110.583,506.841 112.000,506.823 113.417,506.862 114.833,506.875 116.250,506.883 117.667,506.864 119.083,506.881 120.500,506.917 121.917,506.911 123.333,506.927 124.750,506.913 126.167,506.938 127.583,506.945 129.000,506.988 130.417,506.986 131.833,506.999 133.250,507.033 134.667,507.047 136.083,507.022 137.500,507.030 138.917,507.022 140.333,507.017 141.750,507.031 143.167,507.002 144.583,506.995 146.000,506.996 147.417,506.989 148.833,506.955 150.250,506.950 151.667,506.931 153.083,506.938 154.500,506.929 155.917,506.893 157.333,506.881 158.750,506.853 160.167,506.839 161.583,506.841 163.000,506.810 164.417,506.854 165.833,506.903 167.250,506.893 168.667,506.882 170.083,506.829 171.500,506.822 172.917,506.823 174.333,506.841 175.750,506.823 177.167,506.862 178.583,506.875 180.000,506.883 181.417,506.864 182.833,506.881 184.250,506.917 185.667,506.911 187.083,506.927 188.500,506.913 189.917,506.938 191.333,506.945 192.750,506.988 194.167,506.986 195.583,506.999 197.000,507.033 198.417,507.047 199.833,507.022 201.250,507.030 202.667,507.022 204.083,507.017 205.500,507.031 206.917,507.002 208.333,506.995 209.750,506.996 211.167,506.989 212.583,506.955 214.000,506.950 215.417,506.931 216.833,506.938 218.250,506.929 219.667,506.893 221.083,506.881 222.500,506.853 223.917,506.839 225.333,506.841 226.750,506.810 228.167,506.854 229.583,506.903 231.000,506.893 232.417,506.882 233.833,506.829 235.250,506.822 236.667,506.823 238.083,506.841 239.500,506.823 240.917,506.862 242.333,506.875 243.750,506.883 245.167,506.864 246.583,506.881 248.000,506.917 249.417,506.911 250.833,506.927 252.250,506.913 253.667,506.938 255.083,506.945 256.500,506.988 257.917,506.986 259.333,506.999 260.750,507.033 262.167,507.047 263.583,507.022 265.000,507.030 266.417,507.022 267.833,507.017 269.250,507.031 270.667,507.002 272.083,506.995 273.500,506.996 274.917,506.989 276.333,506.955 277.750,506.950 279.167,506.931 280.583,506.938 282.000,506.929 283.417,506.893 284.833,506.881 286.250,506.853 287.667,506.839 289.083,506.841 290.500,506.810 291.917,506.854 293.333,506.903 294.750,506.893 296.167,506.882 297.583,506.829 299.000,506.822 300.417,506.823 301.833,506.841 303.250,506.823 304.667,506.862 306.083,506.875 307.500,506.883 308.917,506.864 310.333,506.881 311.750,506.917 313.167,506.911 314.583,506.927 316.000,506.913 317.417,506.938 318.833,506.945 320.250,506.988 321.667,506.986 323.083,506.999 324.500,507.033 325.917,507.047 327.333,507.022 328.750,507.030 330.167,507.022 331.583,507.017 333.000,507.031 334.417,507.002 335.833,506.995 337.250,506.996 338.667,506.989 340.083,506.955 341.500,506.950 342.917,506.931 344.333,506.938 345.750,506.929 347.167,506.893 348.583,506.881 350.000,506.853 351.417,506.839 352.833,506.841 354.250,506.810 355.667,506.854 357.083,506.903 358.500,506.893 359.917,506.882 361.333,506.829 362.750,506.822 364.167,506.823 365.583,506.841 367.000,506.823 368.417,506.862 369.833,506.875 371.250,506.883 372.667,506.864 374.083,506.881 375.500,506.917 376.917,506.911 378.333,506.927 379.750,506.913 381.167,506.938 382.583,506.945 384.000,506.988 385.417,506.986 386.833,506.999 388.250,507.033 389.667,507.047 391.083,507.022 392.500,507.030 393.917,507.022 395.333,507.017 396.750,507.031 398.167,507.002 399.583,506.995 401.000,506.996 402.417,506.989 403.833,506.955 405.250,506.950 406.667,506.931 408.083,506.938 409.500,506.929 410.917,506.893 412.333,506.881 413.750,506.853 415.167,506.839 416.583,506.841 418.000,506.810 419.417,506.854 420.833,506.903 422.250,506.893 423.667,506.882 425.083,506.829 426.500,506.822 427.917,506.823 429.333,506.841 430.750,506.823 432.167,506.862 433.583,506.875 435.000,506.883 436.417,506.864 437.833,506.881 439.250,506.917 440.667,506.911 442.083,506.927 443.500,506.913 444.917,506.938 446.333,506.945 447.750,506.988 449.167,506.986 450.583,506.999 452.000,507.033 453.417,507.047 454.833,507.022 456.250,507.030 457.667,507.022 459.083,507.017 460.500,507.031 461.917,507.002 463.333,506.995 464.750,506.996 466.167,506.989 467.583,506.955 469.000,506.950 470.417,506.931 471.833,506.938 473.250,506.929 474.667,506.893 476.083,506.881 477.500,506.853 478.917,506.839 480.333,506.841 481.750,506.810 483.167,506.854 484.583,506.903 486.000,506.893 487.417,506.882 488.833,506.829 490.250,506.822 491.667,506.823 493.083,506.841 494.500,506.823 495.917,506.862 497.333,506.875 498.750,506.883 500.167,506.864 501.583,506.881 503.000,506.917 504.417,506.911 505.833,506.927 507.250,506.913 508.667,506.938 510.083,506.945 511.500,506.988 512.917,506.986 514.333,506.999 515.750,507.033 517.167,507.047 518.583,507.022 520.000,507.030 521.417,507.022 522.833,507.017 524.250,507.031 525.667,507.002 527.083,506.995 528.500,506.996 529.917,506.989 531.333,506.955 532.750,506.950 534.167,506.931 535.583,506.938 537.000,506.929 538.417,506.893 539.833,506.881 541.250,506.853 542.667,506.839 544.083,506.841 545.500,506.810 546.917,506.854 548.333,506.903 549.750,506.893 551.167,506.882 552.583,506.829 554.000,506.822 555.417,506.823 556.833,506.841 558.250,506.823 559.667,506.862 561.083,506.875 562.500,506.883 563.917,506.864 565.333,506.881 566.750,506.917 568.167,506.911 569.583,506.927 571.000,506.913 572.417,506.938 573.833,506.945 575.250,506.988 576.667,506.986 578.083,506.999 579.500,507.033 580.917,507.047 582.333,507.022 583.750,507.030 585.167,507.022 586.583,507.017 588.000,507.031 589.417,507.002 590.833,506.995 592.250,506.996 593.667,506.989 595.083,506.955 596.500,506.950 597.917,506.931 599.333,506.938 600.750,506.929 602.167,506.893 603.583,506.881 605.000,506.853 606.417,506.839 607.833,506.841 609.250,506.810 610.667,506.854 612.083,506.903 613.500,506.893 614.917,506.882 616.333,506.829 617.750,506.822 619.167,506.823 620.583,506.841 622.000,506.823 623.417,506.862 624.833,506.875 626.250,506.883 627.667,506.864 629.083,506.881 630.500,506.917 631.917,506.911 633.333,506.927 634.750,506.913 636.167,506.938 637.583,506.945 639.000,506.988 640.417,506.986 641.833,506.999 643.250,507.033 644.667,507.047 646.083,507.022 647.500,507.030 648.917,507.022 650.333,507.017 651.750,507.031 653.167,507.002 654.583,506.995 656.000,506.996 657.417,506.989 658.833,506.955 660.250,506.950 661.667,506.931 663.083,506.938 664.500,506.929 665.917,506.893 667.333,506.881 668.750,506.853 670.167,506.839 671.583,506.841 673.000,506.810 674.417,506.854 675.833,506.903 677.250,506.893 678.667,506.882 680.083,506.829 681.500,506.822 682.917,506.823 684.333,506.841 685.750,506.823 687.167,506.862 688.583,506.875 690.000,506.883 691.417,506.864 692.833,506.881 694.250,506.917 695.667,506.911 697.083,506.927 698.500,506.913 699.917,506.938 701.333,506.945 702.750,506.988 704.167,506.986 705.583,506.999 707.000,507.033 708.417,507.047 709.833,507.022 711.250,507.030 712.667,507.022 714.083,507.017 715.500,507.031 716.917,507.002 718.333,506.995 719.750,506.996 721.167,506.989 722.583,506.955 724.000,506.950 725.417,506.931 726.833,506.938 728.250,506.929 729.667,506.893 731.083,506.881 732.500,506.853 733.917,506.839 735.333,506.841 736.750,506.810 738.167,506.854 739.583,506.903 741.000,506.893 742.417,506.882 743.833,506.829 745.250,506.822 746.667,506.823 748.083,506.841 749.500,506.823 750.917,506.862 752.333,506.875 753.750,506.883 755.167,506.864 756.583,506.881 758.000,506.917 759.417,506.911 760.833,506.927 762.250,506.913 763.667,506.938 765.083,506.945 766.500,506.988 767.917,506.986 769.333,506.999 770.750,507.033 772.167,507.047 773.583,507.022 775.000,507.030 776.417,507.022 777.833,507.017 779.250,507.031 780.667,507.002 782.083,506.995 783.500,506.996 784.917,506.989 786.333,506.955 787.750,506.950 789.167,506.931 790.583,506.938 792.000,506.929 793.417,506.893 794.833,506.881 796.250,506.853 797.667,506.839 799.083,506.841 800.500,506.810 801.917,506.854 803.333,506.903 804.750,506.893 806.167,506.882 807.583,506.829 809.000,506.822 810.417,506.823 811.833,506.841 813.250,506.823 814.667,506.862 816.083,506.875 817.500,506.883 818.917,506.864 820.333,506.881 821.750,506.917 823.167,506.911 824.583,506.927 826.000,506.913 827.417,506.938 828.833,506.945 830.250,506.988 831.667,506.986 833.083,506.999 834.500,507.033 835.917,507.047 837.333,507.022 838.750,507.030 840.167,507.022 841.583,507.017 843.000,507.031 844.417,507.002 845.833,506.995 847.250,506.996 848.667,506.989 850.083,506.955 851.500,506.950 852.917,506.931 854.333,506.938 855.750,506.929 857.167,506.893 858.583,506.881 860.000,506.853 861.417,506.839 862.833,506.841 864.250,506.810 865.667,506.854 867.083,506.903 868.500,506.893 869.917,506.882 871.333,506.829 872.750,506.822 874.167,506.823 875.583,506.841 877.000,506.823 878.417,506.862 879.833,506.875 881.250,506.883 882.667,506.864 884.083,506.881 885.500,506.917 886.917,506.911 888.333,506.927 889.750,506.913 891.167,506.938 892.583,506.945 894.000,506.988 895.417,506.986 896.833,506.999 898.250,507.033 899.667,507.047 901.083,507.022 902.500,507.030 903.917,507.022 905.333,507.017 906.750,507.031 908.167,507.002 909.583,506.995 911.000,506.996 912.417,506.989 913.833,506.955 915.250,506.950 916.667,506.931 918.083,506.938 919.500,506.929 920.917,506.893 922.333,506.881 923.750,506.853 925.167,506.839 926.583,506.841 928.000,506.810 929.417,506.854 930.833,506.903 932.250,506.893 933.667,506.882 935.083,506.829 936.500,506.822 937.917,506.823 939.333,506.841 940.750,506.823 942.167,506.862 943.583,506.875 945.000,506.883 946.417,506.864 947.833,506.881 949.250,506.917 950.667,506.911 952.083,506.927 953.500,506.913 954.917,506.938 956.333,506.945 957.750,506.988 959.167,506.986 960.583,506.999 962.000,507.033 963.417,507.047 964.833,507.022 966.250,507.030 967.667,507.022 969.083,507.017 970.500,507.031 971.917,507.002 973.333,506.995 974.750,506.996 976.167,506.989 977.583,506.955 979.000,506.950 980.417,506.931 981.833,506.938 983.250,506.929 984.667,506.893 986.083,506.881 987.500,506.853 988.917,506.839 990.333,506.841 991.750,506.810 993.167,506.854 994.583,506.903 996.000,506.893 997.417,506.882 998.833,506.829 1000.250,506.822 1001.667,506.823 1003.083,506.841 1004.500,506.823 1005.917,506.862 1007.333,506.875 1008.750,506.883 1010.167,506.864 1011.583,506.881 1013.000,506.917 1014.417,506.911 1015.833,506.927 1017.250,506.913 1018.667,506.938 1020.083,506.945 1021.500,506.988 1022.917,506.986 1024.333,506.999 1025.750,507.033 1027.167,507.047 1028.583,507.022 1030.000,507.030 1031.417,507.022 1032.833,507.017 1034.250,507.031 1035.667,507.002 1037.083,506.995 1038.500,506.996 1039.917,506.989 1041.333,506.955 1042.750,506.950 1044.167,506.931 1045.583,506.938 1047.000,506.929 1048.417,506.893 1049.833,506.881 1051.250,506.853 1052.667,506.839 1054.083,506.841 1055.500,506.810 1056.917,506.854 1058.333,506.903 1059.750,506.893 1061.167,506.882 1062.583,506.829 1064.000,506.822 1065.417,506.823 1066.833,506.841 1068.250,506.823 1069.667,506.862 1071.083,506.875 1072.500,506.883 1073.917,506.864 1075.333,506.881 1076.750,506.917 1078.167,506.911 1079.583,506.927 1081.000,506.913 1082.417,506.938 1083.833,506.945 1085.250,506.988 1086.667,506.986 1088.083,506.999 1089.500,507.033 1090.917,507.047 1092.333,507.022 1093.750,507.030 1095.167,507.022 1096.583,507.017 1098.000,507.031 1099.417,507.002 1100.833,506.995 1102.250,506.996 1103.667,506.989 1105.083,506.955 1106.500,506.950 1107.917,506.931 1109.333,506.938 1110.750,506.929 1112.167,506.893 1113.583,506.881" fill="none" stroke="#72baf4" stroke-width="2"/><text x="635" y="620" font-family="sans-serif" font-size="14" fill="#72baf4">局所抗力モデル × 未校正保持係数 0.5</text><polyline points="95.000,499.240 96.417,499.219 97.833,499.222 99.250,499.175 100.667,499.240 102.083,499.314 103.500,499.299 104.917,499.283 106.333,499.204 107.750,499.193 109.167,499.194 110.583,499.221 112.000,499.194 113.417,499.254 114.833,499.273 116.250,499.284 117.667,499.257 119.083,499.282 120.500,499.335 121.917,499.327 123.333,499.351 124.750,499.330 126.167,499.367 127.583,499.378 129.000,499.442 130.417,499.439 131.833,499.458 133.250,499.510 134.667,499.531 136.083,499.493 137.500,499.505 138.917,499.494 140.333,499.486 141.750,499.507 143.167,499.463 144.583,499.453 146.000,499.454 147.417,499.443 148.833,499.393 150.250,499.385 151.667,499.357 153.083,499.367 154.500,499.353 155.917,499.300 157.333,499.281 158.750,499.240 160.167,499.219 161.583,499.222 163.000,499.175 164.417,499.240 165.833,499.314 167.250,499.299 168.667,499.283 170.083,499.204 171.500,499.193 172.917,499.194 174.333,499.221 175.750,499.194 177.167,499.254 178.583,499.273 180.000,499.284 181.417,499.257 182.833,499.282 184.250,499.335 185.667,499.327 187.083,499.351 188.500,499.330 189.917,499.367 191.333,499.378 192.750,499.442 194.167,499.439 195.583,499.458 197.000,499.510 198.417,499.531 199.833,499.493 201.250,499.505 202.667,499.494 204.083,499.486 205.500,499.507 206.917,499.463 208.333,499.453 209.750,499.454 211.167,499.443 212.583,499.393 214.000,499.385 215.417,499.357 216.833,499.367 218.250,499.353 219.667,499.300 221.083,499.281 222.500,499.240 223.917,499.219 225.333,499.222 226.750,499.175 228.167,499.240 229.583,499.314 231.000,499.299 232.417,499.283 233.833,499.204 235.250,499.193 236.667,499.194 238.083,499.221 239.500,499.194 240.917,499.254 242.333,499.273 243.750,499.284 245.167,499.257 246.583,499.282 248.000,499.335 249.417,499.327 250.833,499.351 252.250,499.330 253.667,499.367 255.083,499.378 256.500,499.442 257.917,499.439 259.333,499.458 260.750,499.510 262.167,499.531 263.583,499.493 265.000,499.505 266.417,499.494 267.833,499.486 269.250,499.507 270.667,499.463 272.083,499.453 273.500,499.454 274.917,499.443 276.333,499.393 277.750,499.385 279.167,499.357 280.583,499.367 282.000,499.353 283.417,499.300 284.833,499.281 286.250,499.240 287.667,499.219 289.083,499.222 290.500,499.175 291.917,499.240 293.333,499.314 294.750,499.299 296.167,499.283 297.583,499.204 299.000,499.193 300.417,499.194 301.833,499.221 303.250,499.194 304.667,499.254 306.083,499.273 307.500,499.284 308.917,499.257 310.333,499.282 311.750,499.335 313.167,499.327 314.583,499.351 316.000,499.330 317.417,499.367 318.833,499.378 320.250,499.442 321.667,499.439 323.083,499.458 324.500,499.510 325.917,499.531 327.333,499.493 328.750,499.505 330.167,499.494 331.583,499.486 333.000,499.507 334.417,499.463 335.833,499.453 337.250,499.454 338.667,499.443 340.083,499.393 341.500,499.385 342.917,499.357 344.333,499.367 345.750,499.353 347.167,499.300 348.583,499.281 350.000,499.240 351.417,499.219 352.833,499.222 354.250,499.175 355.667,499.240 357.083,499.314 358.500,499.299 359.917,499.283 361.333,499.204 362.750,499.193 364.167,499.194 365.583,499.221 367.000,499.194 368.417,499.254 369.833,499.273 371.250,499.284 372.667,499.257 374.083,499.282 375.500,499.335 376.917,499.327 378.333,499.351 379.750,499.330 381.167,499.367 382.583,499.378 384.000,499.442 385.417,499.439 386.833,499.458 388.250,499.510 389.667,499.531 391.083,499.493 392.500,499.505 393.917,499.494 395.333,499.486 396.750,499.507 398.167,499.463 399.583,499.453 401.000,499.454 402.417,499.443 403.833,499.393 405.250,499.385 406.667,499.357 408.083,499.367 409.500,499.353 410.917,499.300 412.333,499.281 413.750,499.240 415.167,499.219 416.583,499.222 418.000,499.175 419.417,499.240 420.833,499.314 422.250,499.299 423.667,499.283 425.083,499.204 426.500,499.193 427.917,499.194 429.333,499.221 430.750,499.194 432.167,499.254 433.583,499.273 435.000,499.284 436.417,499.257 437.833,499.282 439.250,499.335 440.667,499.327 442.083,499.351 443.500,499.330 444.917,499.367 446.333,499.378 447.750,499.442 449.167,499.439 450.583,499.458 452.000,499.510 453.417,499.531 454.833,499.493 456.250,499.505 457.667,499.494 459.083,499.486 460.500,499.507 461.917,499.463 463.333,499.453 464.750,499.454 466.167,499.443 467.583,499.393 469.000,499.385 470.417,499.357 471.833,499.367 473.250,499.353 474.667,499.300 476.083,499.281 477.500,499.240 478.917,499.219 480.333,499.222 481.750,499.175 483.167,499.240 484.583,499.314 486.000,499.299 487.417,499.283 488.833,499.204 490.250,499.193 491.667,499.194 493.083,499.221 494.500,499.194 495.917,499.254 497.333,499.273 498.750,499.284 500.167,499.257 501.583,499.282 503.000,499.335 504.417,499.327 505.833,499.351 507.250,499.330 508.667,499.367 510.083,499.378 511.500,499.442 512.917,499.439 514.333,499.458 515.750,499.510 517.167,499.531 518.583,499.493 520.000,499.505 521.417,499.494 522.833,499.486 524.250,499.507 525.667,499.463 527.083,499.453 528.500,499.454 529.917,499.443 531.333,499.393 532.750,499.385 534.167,499.357 535.583,499.367 537.000,499.353 538.417,499.300 539.833,499.281 541.250,499.240 542.667,499.219 544.083,499.222 545.500,499.175 546.917,499.240 548.333,499.314 549.750,499.299 551.167,499.283 552.583,499.204 554.000,499.193 555.417,499.194 556.833,499.221 558.250,499.194 559.667,499.254 561.083,499.273 562.500,499.284 563.917,499.257 565.333,499.282 566.750,499.335 568.167,499.327 569.583,499.351 571.000,499.330 572.417,499.367 573.833,499.378 575.250,499.442 576.667,499.439 578.083,499.458 579.500,499.510 580.917,499.531 582.333,499.493 583.750,499.505 585.167,499.494 586.583,499.486 588.000,499.507 589.417,499.463 590.833,499.453 592.250,499.454 593.667,499.443 595.083,499.393 596.500,499.385 597.917,499.357 599.333,499.367 600.750,499.353 602.167,499.300 603.583,499.281 605.000,499.240 606.417,499.219 607.833,499.222 609.250,499.175 610.667,499.240 612.083,499.314 613.500,499.299 614.917,499.283 616.333,499.204 617.750,499.193 619.167,499.194 620.583,499.221 622.000,499.194 623.417,499.254 624.833,499.273 626.250,499.284 627.667,499.257 629.083,499.282 630.500,499.335 631.917,499.327 633.333,499.351 634.750,499.330 636.167,499.367 637.583,499.378 639.000,499.442 640.417,499.439 641.833,499.458 643.250,499.510 644.667,499.531 646.083,499.493 647.500,499.505 648.917,499.494 650.333,499.486 651.750,499.507 653.167,499.463 654.583,499.453 656.000,499.454 657.417,499.443 658.833,499.393 660.250,499.385 661.667,499.357 663.083,499.367 664.500,499.353 665.917,499.300 667.333,499.281 668.750,499.240 670.167,499.219 671.583,499.222 673.000,499.175 674.417,499.240 675.833,499.314 677.250,499.299 678.667,499.283 680.083,499.204 681.500,499.193 682.917,499.194 684.333,499.221 685.750,499.194 687.167,499.254 688.583,499.273 690.000,499.284 691.417,499.257 692.833,499.282 694.250,499.335 695.667,499.327 697.083,499.351 698.500,499.330 699.917,499.367 701.333,499.378 702.750,499.442 704.167,499.439 705.583,499.458 707.000,499.510 708.417,499.531 709.833,499.493 711.250,499.505 712.667,499.494 714.083,499.486 715.500,499.507 716.917,499.463 718.333,499.453 719.750,499.454 721.167,499.443 722.583,499.393 724.000,499.385 725.417,499.357 726.833,499.367 728.250,499.353 729.667,499.300 731.083,499.281 732.500,499.240 733.917,499.219 735.333,499.222 736.750,499.175 738.167,499.240 739.583,499.314 741.000,499.299 742.417,499.283 743.833,499.204 745.250,499.193 746.667,499.194 748.083,499.221 749.500,499.194 750.917,499.254 752.333,499.273 753.750,499.284 755.167,499.257 756.583,499.282 758.000,499.335 759.417,499.327 760.833,499.351 762.250,499.330 763.667,499.367 765.083,499.378 766.500,499.442 767.917,499.439 769.333,499.458 770.750,499.510 772.167,499.531 773.583,499.493 775.000,499.505 776.417,499.494 777.833,499.486 779.250,499.507 780.667,499.463 782.083,499.453 783.500,499.454 784.917,499.443 786.333,499.393 787.750,499.385 789.167,499.357 790.583,499.367 792.000,499.353 793.417,499.300 794.833,499.281 796.250,499.240 797.667,499.219 799.083,499.222 800.500,499.175 801.917,499.240 803.333,499.314 804.750,499.299 806.167,499.283 807.583,499.204 809.000,499.193 810.417,499.194 811.833,499.221 813.250,499.194 814.667,499.254 816.083,499.273 817.500,499.284 818.917,499.257 820.333,499.282 821.750,499.335 823.167,499.327 824.583,499.351 826.000,499.330 827.417,499.367 828.833,499.378 830.250,499.442 831.667,499.439 833.083,499.458 834.500,499.510 835.917,499.531 837.333,499.493 838.750,499.505 840.167,499.494 841.583,499.486 843.000,499.507 844.417,499.463 845.833,499.453 847.250,499.454 848.667,499.443 850.083,499.393 851.500,499.385 852.917,499.357 854.333,499.367 855.750,499.353 857.167,499.300 858.583,499.281 860.000,499.240 861.417,499.219 862.833,499.222 864.250,499.175 865.667,499.240 867.083,499.314 868.500,499.299 869.917,499.283 871.333,499.204 872.750,499.193 874.167,499.194 875.583,499.221 877.000,499.194 878.417,499.254 879.833,499.273 881.250,499.284 882.667,499.257 884.083,499.282 885.500,499.335 886.917,499.327 888.333,499.351 889.750,499.330 891.167,499.367 892.583,499.378 894.000,499.442 895.417,499.439 896.833,499.458 898.250,499.510 899.667,499.531 901.083,499.493 902.500,499.505 903.917,499.494 905.333,499.486 906.750,499.507 908.167,499.463 909.583,499.453 911.000,499.454 912.417,499.443 913.833,499.393 915.250,499.385 916.667,499.357 918.083,499.367 919.500,499.353 920.917,499.300 922.333,499.281 923.750,499.240 925.167,499.219 926.583,499.222 928.000,499.175 929.417,499.240 930.833,499.314 932.250,499.299 933.667,499.283 935.083,499.204 936.500,499.193 937.917,499.194 939.333,499.221 940.750,499.194 942.167,499.254 943.583,499.273 945.000,499.284 946.417,499.257 947.833,499.282 949.250,499.335 950.667,499.327 952.083,499.351 953.500,499.330 954.917,499.367 956.333,499.378 957.750,499.442 959.167,499.439 960.583,499.458 962.000,499.510 963.417,499.531 964.833,499.493 966.250,499.505 967.667,499.494 969.083,499.486 970.500,499.507 971.917,499.463 973.333,499.453 974.750,499.454 976.167,499.443 977.583,499.393 979.000,499.385 980.417,499.357 981.833,499.367 983.250,499.353 984.667,499.300 986.083,499.281 987.500,499.240 988.917,499.219 990.333,499.222 991.750,499.175 993.167,499.240 994.583,499.314 996.000,499.299 997.417,499.283 998.833,499.204 1000.250,499.193 1001.667,499.194 1003.083,499.221 1004.500,499.194 1005.917,499.254 1007.333,499.273 1008.750,499.284 1010.167,499.257 1011.583,499.282 1013.000,499.335 1014.417,499.327 1015.833,499.351 1017.250,499.330 1018.667,499.367 1020.083,499.378 1021.500,499.442 1022.917,499.439 1024.333,499.458 1025.750,499.510 1027.167,499.531 1028.583,499.493 1030.000,499.505 1031.417,499.494 1032.833,499.486 1034.250,499.507 1035.667,499.463 1037.083,499.453 1038.500,499.454 1039.917,499.443 1041.333,499.393 1042.750,499.385 1044.167,499.357 1045.583,499.367 1047.000,499.353 1048.417,499.300 1049.833,499.281 1051.250,499.240 1052.667,499.219 1054.083,499.222 1055.500,499.175 1056.917,499.240 1058.333,499.314 1059.750,499.299 1061.167,499.283 1062.583,499.204 1064.000,499.193 1065.417,499.194 1066.833,499.221 1068.250,499.194 1069.667,499.254 1071.083,499.273 1072.500,499.284 1073.917,499.257 1075.333,499.282 1076.750,499.335 1078.167,499.327 1079.583,499.351 1081.000,499.330 1082.417,499.367 1083.833,499.378 1085.250,499.442 1086.667,499.439 1088.083,499.458 1089.500,499.510 1090.917,499.531 1092.333,499.493 1093.750,499.505 1095.167,499.494 1096.583,499.486 1098.000,499.507 1099.417,499.463 1100.833,499.453 1102.250,499.454 1103.667,499.443 1105.083,499.393 1106.500,499.385 1107.917,499.357 1109.333,499.367 1110.750,499.353 1112.167,499.300 1113.583,499.281" fill="none" stroke="#c094ef" stroke-width="2"/><text x="100" y="644" font-family="sans-serif" font-size="14" fill="#c094ef">局所抗力モデル × 未校正保持係数 0.75</text><polyline points="95.000,163.673 1115.000,163.673" fill="none" stroke="#ff9977" stroke-width="2"/><text x="635" y="644" font-family="sans-serif" font-size="14" fill="#ff9977">正味余裕2倍に相当する総トルク</text><circle cx="95.000" cy="163.673" r="3" fill="#ff9977"/><circle cx="1115.000" cy="163.673" r="3" fill="#ff9977"/><text x="45" y="720" font-family="sans-serif" font-size="13" fill="#dce5f2">HYP_8_20: 仮のピーク8m/s・速度σ20mm。メーカー風速でも均一な全面風でもない。</text><text x="45" y="742" font-family="sans-serif" font-size="13" fill="#dce5f2">保持係数は実験値・下限ではない。上部戻り側の負トルクと第一面遮蔽を計算。回転中性能は未解析。</text><text x="45" y="764" font-family="sans-serif" font-size="13" fill="#dce5f2">測定供給下限=null。距離への換算なし。Bは奇数減速のため噴流/羽根の上下反転が必要。</text></svg>
