<svg xmlns="http://www.w3.org/2000/svg" width="1200" height="821" viewBox="0 0 1200 821"><rect width="100%" height="100%" fill="#101722"/><text x="45" y="42" font-family="sans-serif" font-size="23" fill="#dce5f2">B / 必要入力を下げた要因と残る不足</text><text x="45" y="72" font-family="sans-serif" font-size="16" fill="#f7c66f">条件付き計算 / CFD・実測・実機合格ではありません</text><path d="M95 540.0H1115" stroke="#304052"/><text x="12" y="545.0" font-family="sans-serif" font-size="13" fill="#dce5f2">-0.259</text><path d="M95 459.0H1115" stroke="#304052"/><text x="12" y="464.0" font-family="sans-serif" font-size="13" fill="#dce5f2">0.913</text><path d="M95 378.0H1115" stroke="#304052"/><text x="12" y="383.0" font-family="sans-serif" font-size="13" fill="#dce5f2">2.09</text><path d="M95 297.0H1115" stroke="#304052"/><text x="12" y="302.0" font-family="sans-serif" font-size="13" fill="#dce5f2">3.26</text><path d="M95 216.0H1115" stroke="#304052"/><text x="12" y="221.0" font-family="sans-serif" font-size="13" fill="#dce5f2">4.43</text><path d="M95 135.0H1115" stroke="#304052"/><text x="12" y="140.0" font-family="sans-serif" font-size="13" fill="#dce5f2">5.6</text><path d="M95.0 135V548" stroke="#263545"/><text x="83.0" y="563" font-family="sans-serif" font-size="13" fill="#dce5f2">0</text><path d="M435.0 135V548" stroke="#263545"/><text x="423.0" y="563" font-family="sans-serif" font-size="13" fill="#dce5f2">1</text><path d="M775.0 135V548" stroke="#263545"/><text x="763.0" y="563" font-family="sans-serif" font-size="13" fill="#dce5f2">2</text><path d="M1115.0 135V548" stroke="#263545"/><text x="1103.0" y="563" font-family="sans-serif" font-size="13" fill="#dce5f2">3</text><text x="490" y="584" font-family="sans-serif" font-size="16" fill="#dce5f2">0=R2 / 1=比のみ / 2=リンク改訂+ローター増量 / 3=既比較ロッド</text><text x="95" y="113" font-family="sans-serif" font-size="16" fill="#dce5f2">入力軸ピークトルク [mN·m]</text><polyline points="95.000,482.209 435.000,493.756 775.000,500.104 1115.000,500.664" fill="none" stroke="#6ad6a2" stroke-width="2"/><text x="100" y="620" font-family="sans-serif" font-size="14" fill="#6ad6a2">low</text><circle cx="95.000" cy="482.209" r="3" fill="#6ad6a2"/><circle cx="435.000" cy="493.756" r="3" fill="#6ad6a2"/><circle cx="775.000" cy="500.104" r="3" fill="#6ad6a2"/><circle cx="1115.000" cy="500.664" r="3" fill="#6ad6a2"/><polyline points="95.000,415.204 435.000,443.412 775.000,458.425 1115.000,459.816" fill="none" stroke="#72baf4" stroke-width="2"/><text x="635" y="620" font-family="sans-serif" font-size="14" fill="#72baf4">nominal</text><circle cx="95.000" cy="415.204" r="3" fill="#72baf4"/><circle cx="435.000" cy="443.412" r="3" fill="#72baf4"/><circle cx="775.000" cy="458.425" r="3" fill="#72baf4"/><circle cx="1115.000" cy="459.816" r="3" fill="#72baf4"/><polyline points="95.000,163.673 435.000,257.009 775.000,297.593 1115.000,306.000" fill="none" stroke="#ff9977" stroke-width="2"/><text x="100" y="644" font-family="sans-serif" font-size="14" fill="#ff9977">high</text><circle cx="95.000" cy="163.673" r="3" fill="#ff9977"/><circle cx="435.000" cy="257.009" r="3" fill="#ff9977"/><circle cx="775.000" cy="297.593" r="3" fill="#ff9977"/><circle cx="1115.000" cy="306.000" r="3" fill="#ff9977"/><text x="45" y="720" font-family="sans-serif" font-size="13" fill="#dce5f2">全点は同一の冷風基準からの風力包絡。旧8m/sの値と新6.4m/sを混ぜた改善ではない。</text><text x="45" y="742" font-family="sans-serif" font-size="13" fill="#dce5f2">部材軽量化を仮想の質量減として使わず、大きくなった風車の代理質量は上乗せする。</text><text x="45" y="764" font-family="sans-serif" font-size="13" fill="#dce5f2">ローター径変更による供給側の変化は別の角度別トルク図で確認する。</text></svg>
