<svg xmlns="http://www.w3.org/2000/svg" width="1200" height="821" viewBox="0 0 1200 821"><rect width="100%" height="100%" fill="#101722"/><text x="45" y="42" font-family="sans-serif" font-size="23" fill="#dce5f2">C / 保存点間リブの断面探索（全フレーム未検証）</text><text x="45" y="72" font-family="sans-serif" font-size="16" fill="#f7c66f">条件付き計算 / CFD・実測・実機合格ではありません</text><path d="M95 540.0H1115" stroke="#304052"/><text x="12" y="545.0" font-family="sans-serif" font-size="13" fill="#dce5f2">-0.0983</text><path d="M95 459.0H1115" stroke="#304052"/><text x="12" y="464.0" font-family="sans-serif" font-size="13" fill="#dce5f2">0.346</text><path d="M95 378.0H1115" stroke="#304052"/><text x="12" y="383.0" font-family="sans-serif" font-size="13" fill="#dce5f2">0.79</text><path d="M95 297.0H1115" stroke="#304052"/><text x="12" y="302.0" font-family="sans-serif" font-size="13" fill="#dce5f2">1.23</text><path d="M95 216.0H1115" stroke="#304052"/><text x="12" y="221.0" font-family="sans-serif" font-size="13" fill="#dce5f2">1.68</text><path d="M95 135.0H1115" stroke="#304052"/><text x="12" y="140.0" font-family="sans-serif" font-size="13" fill="#dce5f2">2.12</text><path d="M95.0 135V548" stroke="#263545"/><text x="83.0" y="563" font-family="sans-serif" font-size="13" fill="#dce5f2">6</text><path d="M350.0 135V548" stroke="#263545"/><text x="338.0" y="563" font-family="sans-serif" font-size="13" fill="#dce5f2">7.5</text><path d="M605.0 135V548" stroke="#263545"/><text x="593.0" y="563" font-family="sans-serif" font-size="13" fill="#dce5f2">9</text><path d="M860.0 135V548" stroke="#263545"/><text x="848.0" y="563" font-family="sans-serif" font-size="13" fill="#dce5f2">10.5</text><path d="M1115.0 135V548" stroke="#263545"/><text x="1103.0" y="563" font-family="sans-serif" font-size="13" fill="#dce5f2">12</text><text x="490" y="584" font-family="sans-serif" font-size="16" fill="#dce5f2">リブ幅 [mm]</text><text x="95" y="113" font-family="sans-serif" font-size="16" fill="#dce5f2">中心ずれ・傾きのバックラッシ換算 [mm]</text><polyline points="95.000,163.673 435.000,253.274 775.000,307.035 1115.000,342.876" fill="none" stroke="#ff9977" stroke-width="2"/><text x="100" y="620" font-family="sans-serif" font-size="14" fill="#ff9977">厚さ 3mm</text><circle cx="95.000" cy="163.673" r="3" fill="#ff9977"/><circle cx="435.000" cy="253.274" r="3" fill="#ff9977"/><circle cx="775.000" cy="307.035" r="3" fill="#ff9977"/><circle cx="1115.000" cy="342.876" r="3" fill="#ff9977"/><polyline points="95.000,370.877 435.000,408.677 775.000,431.358 1115.000,446.478" fill="none" stroke="#c094ef" stroke-width="2"/><text x="635" y="620" font-family="sans-serif" font-size="14" fill="#c094ef">厚さ 4mm</text><circle cx="95.000" cy="370.877" r="3" fill="#c094ef"/><circle cx="435.000" cy="408.677" r="3" fill="#c094ef"/><circle cx="775.000" cy="431.358" r="3" fill="#c094ef"/><circle cx="1115.000" cy="446.478" r="3" fill="#c094ef"/><polyline points="95.000,477.279 435.000,488.479 775.000,495.199 1115.000,499.679" fill="none" stroke="#72baf4" stroke-width="2"/><text x="100" y="644" font-family="sans-serif" font-size="14" fill="#72baf4">厚さ 6mm</text><circle cx="95.000" cy="477.279" r="3" fill="#72baf4"/><circle cx="435.000" cy="488.479" r="3" fill="#72baf4"/><circle cx="775.000" cy="495.199" r="3" fill="#72baf4"/><circle cx="1115.000" cy="499.679" r="3" fill="#72baf4"/><polyline points="95.000,488.479 435.000,507.904 775.000,510.739 1115.000,512.629" fill="none" stroke="#6ad6a2" stroke-width="2"/><text x="635" y="644" font-family="sans-serif" font-size="14" fill="#6ad6a2">厚さ 8mm</text><circle cx="95.000" cy="488.479" r="3" fill="#6ad6a2"/><circle cx="435.000" cy="507.904" r="3" fill="#6ad6a2"/><circle cx="775.000" cy="510.739" r="3" fill="#6ad6a2"/><circle cx="1115.000" cy="512.629" r="3" fill="#6ad6a2"/><polyline points="95.000,495.186 1115.000,495.186" fill="none" stroke="#eeeeee" stroke-width="2"/><text x="100" y="668" font-family="sans-serif" font-size="14" fill="#eeeeee">軸の変形を差し引いた残余予算</text><circle cx="95.000" cy="495.186" r="3" fill="#eeeeee"/><circle cx="1115.000" cy="495.186" r="3" fill="#eeeeee"/><text x="45" y="720" font-family="sans-serif" font-size="13" fill="#dce5f2">単純支持 62.5mm / 中央 2.16N / E=800MPa / 16候補を実計算。</text><text x="45" y="742" font-family="sans-serif" font-size="13" fill="#dce5f2">2部材の最大変位・角度を保守的に加算。これは部材クーポンで、実際のフレーム剛性ではない。</text><text x="45" y="764" font-family="sans-serif" font-size="13" fill="#dce5f2">Cを生成設計済みの完成機とはしない。保存ボス・工具空間・可動域を備えた全体形状は次のゲート。</text></svg>
